# xmcd
#
# Track frame offsets:
#	150
#	12523
#	26712
#	42808
#	60853
#	79919
#	91646
#	112655
#	135528
#	156069
#	172999
#	215726
#	232956
#	256006
#	290010
#	303710
#
# Disc length: 4458 seconds
#
# Revision: 1
# Processed by: cddbd v1.5.1PL0 Copyright (c) Steve Scherf et al.
# Submitted via: EasyCDDAExtractor 7.0.5.4
#
DISCID=c6116810
DTITLE=Pealing, Carruthers and Young - Live At St Andrews
DYEAR=1900
DGENRE=Country
TTITLE0=Some Of Shelley's Blues
TTITLE1=Secret Heart
TTITLE2=One Step Over The Line
TTITLE3=Back Again
TTITLE4=Romeo's Tune
TTITLE5=Six Feet Of Snow
TTITLE6=Look After Yourself
TTITLE7=All This Time
TTITLE8=Your Love Is My Rest
TTITLE9=Don't Pull Your Love
TTITLE10=Travelling In Style
TTITLE11=Last Of The Riverboats
TTITLE12=The Weight
TTITLE13=Suite Judy Blue Eyes
TTITLE14=To Be Young
TTITLE15=Maggie May
EXTD=
EXTT0=
EXTT1=
EXTT2=
EXTT3=
EXTT4=
EXTT5=
EXTT6=
EXTT7=
EXTT8=
EXTT9=
EXTT10=
EXTT11=
EXTT12=
EXTT13=
EXTT14=
EXTT15=
PLAYORDER=
